<svg width="19" height="18" viewBox="0 0 19 18" fill="none" xmlns="http://www.w3.org/2000/svg">
<g clip-path="url(#clip0_1_180)">
<path d="M18.989 17.5343L18.514 15.7343C18.2886 14.861 17.6054 14.1588 16.705 13.875L13.2217 12.7755C12.3722 12.4403 11.9835 11.1443 11.8996 10.6522C12.5469 10.1423 12.9633 9.41685 13.0633 8.62499C13.0491 8.48974 13.0827 8.35383 13.1591 8.23873C13.2825 8.20944 13.3836 8.1257 13.4307 8.01373C13.6586 7.49088 13.8016 6.93837 13.855 6.37499C13.8551 6.34437 13.8511 6.31389 13.8431 6.28425C13.7864 6.06533 13.6506 5.87215 13.4592 5.73824V3.74998C13.4592 2.54173 13.0697 2.04599 12.6596 1.75873C12.5813 1.17675 11.9234 0 9.50088 0C7.35161 0.0819844 5.62907 1.71387 5.54253 3.75001V5.73827C5.35112 5.87218 5.21526 6.06537 5.15856 6.28429C5.15055 6.31392 5.14657 6.34444 5.14669 6.37502C5.19998 6.93868 5.34303 7.49145 5.57103 8.01453C5.60532 8.12053 5.69524 8.20206 5.80853 8.2298C5.85288 8.25078 5.936 8.35956 5.936 8.62506C6.03661 9.41917 6.4555 10.1463 7.1061 10.6561C7.02297 11.1473 6.63663 12.4426 5.81094 12.7696L2.29672 13.875C1.39708 14.1588 0.714268 14.8603 0.488568 15.7328L0.0135683 17.5328C-0.0402032 17.7336 0.0879726 17.9376 0.299867 17.9885C0.331521 17.9962 0.364066 18 0.396723 18.0001H18.6051C18.8237 18 19.0008 17.8321 19.0008 17.625C19.0008 17.5943 18.9968 17.5639 18.989 17.5343Z" fill="#939393"/>
</g>
<defs>
<clipPath id="clip0_1_180">
<rect width="19" height="18" fill="white"/>
</clipPath>
</defs>
</svg>
